<svg xmlns="http://www.w3.org/2000/svg" xmlns:xlink="http://www.w3.org/1999/xlink" id="processonSvg1000" viewBox="290.65686893463135 339.90000915527344 318.2862606048584 545.9999847412109" width="318.2862606048584" height="545.9999847412109"><defs id="ProcessOnDefs1001"><marker id="ProcessOnMarker1029" markerUnits="userSpaceOnUse" orient="auto" markerWidth="16.23606797749979" markerHeight="10.550836550532098" viewBox="-1.0 -1.3763819204711736 16.23606797749979 10.550836550532098" refX="-1.0" refY="3.8990363547948754"><path id="ProcessOnPath1030" d="M12.0 3.8990363547948754L0.0 7.798072709589751V0.0Z" stroke="#323232" stroke-width="2.0" fill="#323232" transform="matrix(1.0,0.0,0.0,1.0,0.0,0.0)"/></marker><marker id="ProcessOnMarker1033" markerUnits="userSpaceOnUse" orient="auto" markerWidth="16.23606797749979" markerHeight="10.550836550532098" viewBox="-1.0 -1.3763819204711736 16.23606797749979 10.550836550532098" refX="-1.0" refY="3.8990363547948754"><path id="ProcessOnPath1034" d="M12.0 3.8990363547948754L0.0 7.798072709589751V0.0Z" stroke="#323232" stroke-width="2.0" fill="#323232" transform="matrix(1.0,0.0,0.0,1.0,0.0,0.0)"/></marker><marker id="ProcessOnMarker1037" markerUnits="userSpaceOnUse" orient="auto" markerWidth="16.23606797749979" markerHeight="10.550836550532098" viewBox="-1.0 -1.3763819204711736 16.23606797749979 10.550836550532098" refX="-1.0" refY="3.8990363547948754"><path id="ProcessOnPath1038" d="M12.0 3.8990363547948754L0.0 7.798072709589751V0.0Z" stroke="#323232" stroke-width="2.0" fill="#323232" transform="matrix(1.0,0.0,0.0,1.0,0.0,0.0)"/></marker><marker id="ProcessOnMarker1041" markerUnits="userSpaceOnUse" orient="auto" markerWidth="16.23606797749979" markerHeight="10.550836550532098" viewBox="-1.0 -1.3763819204711736 16.23606797749979 10.550836550532098" refX="-1.0" refY="3.8990363547948754"><path id="ProcessOnPath1042" d="M12.0 3.8990363547948754L0.0 7.798072709589751V0.0Z" stroke="#323232" stroke-width="2.0" fill="#323232" transform="matrix(1.0,0.0,0.0,1.0,0.0,0.0)"/></marker><marker id="ProcessOnMarker1049" markerUnits="userSpaceOnUse" orient="auto" markerWidth="16.23606797749979" markerHeight="10.550836550532098" viewBox="-1.0 -1.3763819204711736 16.23606797749979 10.550836550532098" refX="-1.0" refY="3.8990363547948754"><path id="ProcessOnPath1050" d="M12.0 3.8990363547948754L0.0 7.798072709589751V0.0Z" stroke="#323232" stroke-width="2.0" fill="#323232" transform="matrix(1.0,0.0,0.0,1.0,0.0,0.0)"/></marker><marker id="ProcessOnMarker1120" markerUnits="userSpaceOnUse" orient="auto" markerWidth="16.23606797749979" markerHeight="10.550836550532098" viewBox="-1.0 -1.3763819204711736 16.23606797749979 10.550836550532098" refX="-1.0" refY="3.8990363547948754"><path id="ProcessOnPath1121" d="M12.0 3.8990363547948754L0.0 7.798072709589751V0.0Z" stroke="#323232" stroke-width="2.0" fill="#323232" transform="matrix(1.0,0.0,0.0,1.0,0.0,0.0)"/></marker></defs><g id="ProcessOnG1002"><path id="ProcessOnPath1003" d="M290.65686893463135 339.90000915527344H608.9431295394897V885.8999938964844H290.65686893463135V339.90000915527344Z" fill="none"/><g id="ProcessOnG1004"><g id="ProcessOnG1005" transform="matrix(1.0,0.0,0.0,1.0,320.15686893463135,798.0909118652344)" opacity="1.0"><path id="ProcessOnPath1006" d="M0.0 19.0C0.0 -6.333333333333333 38.0 -6.333333333333333 38.0 19.0C38.0 44.333333333333336 0.0 44.333333333333336 0.0 19.0Z" stroke="#323232" stroke-width="2.0" stroke-dasharray="none" opacity="1.0" fill="#b2d9ff"/><g id="ProcessOnG1007" transform="matrix(1.0,0.0,0.0,1.0,10.0,11.5)"><text id="ProcessOnText1008" fill="#000000" font-size="12" x="8.0" y="12.3" font-family="微软雅黑" font-weight="normal" font-style="normal" text-decoration="none" family="微软雅黑" text-anchor="middle" size="12">23</text></g></g><g id="ProcessOnG1009" transform="matrix(1.0,0.0,0.0,1.0,398.01880168914795,798.0909118652344)" opacity="1.0"><path id="ProcessOnPath1010" d="M0.0 19.0C0.0 -6.333333333333333 38.0 -6.333333333333333 38.0 19.0C38.0 44.333333333333336 0.0 44.333333333333336 0.0 19.0Z" stroke="#323232" stroke-width="2.0" stroke-dasharray="none" opacity="1.0" fill="#b2d9ff"/><g id="ProcessOnG1011" transform="matrix(1.0,0.0,0.0,1.0,10.0,4.0)"><text id="ProcessOnText1012" fill="#000000" font-size="12" x="8.0" y="12.3" font-family="微软雅黑" font-weight="normal" font-style="normal" text-decoration="none" family="微软雅黑" text-anchor="middle" size="12">11</text><text id="ProcessOnText1013" fill="#000000" font-size="12" x="8.0" y="27.3" font-family="微软雅黑" font-weight="normal" font-style="normal" text-decoration="none" family="微软雅黑" text-anchor="middle" size="12">86</text></g></g><g id="ProcessOnG1014" transform="matrix(1.0,0.0,0.0,1.0,473.09688091278076,798.0909118652344)" opacity="1.0"><path id="ProcessOnPath1015" d="M0.0 19.0C0.0 -6.333333333333333 38.0 -6.333333333333333 38.0 19.0C38.0 44.333333333333336 0.0 44.333333333333336 0.0 19.0Z" stroke="#323232" stroke-width="2.0" stroke-dasharray="none" opacity="1.0" fill="#b2d9ff"/><g id="ProcessOnG1016" transform="matrix(1.0,0.0,0.0,1.0,10.0,11.5)"><text id="ProcessOnText1017" fill="#000000" font-size="12" x="8.0" y="12.3" font-family="微软雅黑" font-weight="normal" font-style="normal" text-decoration="none" family="微软雅黑" text-anchor="middle" size="12">10</text></g></g><g id="ProcessOnG1018" transform="matrix(1.0,0.0,0.0,1.0,541.4431295394897,798.0909118652344)" opacity="1.0"><path id="ProcessOnPath1019" d="M0.0 19.0C0.0 -6.333333333333333 38.0 -6.333333333333333 38.0 19.0C38.0 44.333333333333336 0.0 44.333333333333336 0.0 19.0Z" stroke="#323232" stroke-width="2.0" stroke-dasharray="none" opacity="1.0" fill="#b2d9ff"/><g id="ProcessOnG1020" transform="matrix(1.0,0.0,0.0,1.0,10.0,4.0)"><text id="ProcessOnText1021" fill="#000000" font-size="12" x="8.0" y="12.3" font-family="微软雅黑" font-weight="normal" font-style="normal" text-decoration="none" family="微软雅黑" text-anchor="middle" size="12">11</text><text id="ProcessOnText1022" fill="#000000" font-size="12" x="8.0" y="27.3" font-family="微软雅黑" font-weight="normal" font-style="normal" text-decoration="none" family="微软雅黑" text-anchor="middle" size="12">9</text></g></g><g id="ProcessOnG1023" transform="matrix(1.0,0.0,0.0,1.0,329.79999923706055,711.3999938964844)" opacity="1.0"><path id="ProcessOnPath1024" d="M0.0 4.0Q0.0 0.0 4.0 0.0L235.0 0.0Q239.0 0.0 239.0 4.0L239.0 46.0Q239.0 50.0 235.0 50.0L4.0 50.0Q0.0 50.0 0.0 46.0Z" stroke="#323232" stroke-width="2.0" stroke-dasharray="none" opacity="1.0" fill="#b2d9ff"/><g id="ProcessOnG1025" transform="matrix(1.0,0.0,0.0,1.0,10.0,12.5)"><text id="ProcessOnText1026" fill="#000000" font-size="20" x="108.5" y="20.5" font-family="Arial" font-weight="bold" font-style="normal" text-decoration="none" family="Arial" text-anchor="middle" size="20">Embedding</text></g></g><g id="ProcessOnG1027"><path id="ProcessOnPath1028" d="M417.01880168914795 798.0909118652344L416.45580117104197 776.6308213672197" stroke="#323232" stroke-width="2.0" stroke-dasharray="none" fill="none" marker-end="url(#ProcessOnMarker1029)"/></g><g id="ProcessOnG1031"><path id="ProcessOnPath1032" d="M560.4431295394897 798.0909118652344L560.4634216302859 776.636055059312" stroke="#323232" stroke-width="2.0" stroke-dasharray="none" fill="none" marker-end="url(#ProcessOnMarker1033)"/></g><g id="ProcessOnG1035"><path id="ProcessOnPath1036" d="M339.15686893463135 798.0909118652344L339.08348153450885 776.6359727432413" stroke="#323232" stroke-width="2.0" stroke-dasharray="none" fill="none" marker-end="url(#ProcessOnMarker1037)"/></g><g id="ProcessOnG1039"><path id="ProcessOnPath1040" d="M492.09688091278076 798.0909118652344L491.33156843298514 776.6263865818837" stroke="#323232" stroke-width="2.0" stroke-dasharray="none" fill="none" marker-end="url(#ProcessOnMarker1041)"/></g><g id="ProcessOnG1043" transform="matrix(1.0,0.0,0.0,1.0,329.79999923706055,614.4000091552734)" opacity="1.0"><path id="ProcessOnPath1044" d="M0.0 4.0Q0.0 0.0 4.0 0.0L235.0 0.0Q239.0 0.0 239.0 4.0L239.0 46.0Q239.0 50.0 235.0 50.0L4.0 50.0Q0.0 50.0 0.0 46.0Z" stroke="#323232" stroke-width="2.0" stroke-dasharray="none" opacity="1.0" fill="#b2d9ff"/><g id="ProcessOnG1045" transform="matrix(1.0,0.0,0.0,1.0,10.0,12.5)"><text id="ProcessOnText1046" fill="#000000" font-size="20" x="108.5" y="20.5" font-family="Arial" font-weight="bold" font-style="normal" text-decoration="none" family="Arial" text-anchor="middle" size="20">Bi-LSTM(hidden u)</text></g></g><g id="ProcessOnG1047"><path id="ProcessOnPath1048" d="M449.29999923706055 711.3999938964844L449.29999923706055 679.6360771327733" stroke="#323232" stroke-width="2.0" stroke-dasharray="none" fill="none" marker-end="url(#ProcessOnMarker1049)"/></g><g id="ProcessOnG1051" transform="matrix(1.0,0.0,0.0,1.0,375.69059801101685,458.40000915527344)" opacity="1.0"><path id="ProcessOnPath1052" d="M0.0 0.0L25.0 0.0L25.0 25.0L0.0 25.0Z" stroke="#323232" stroke-width="2.0" stroke-dasharray="none" opacity="1.0" fill="#ffffff"/></g><g id="ProcessOnG1053" transform="matrix(1.0,0.0,0.0,1.0,400.69059801101685,458.40000915527344)" opacity="1.0"><path id="ProcessOnPath1054" d="M0.0 0.0L25.0 0.0L25.0 25.0L0.0 25.0Z" stroke="#323232" stroke-width="2.0" stroke-dasharray="none" opacity="1.0" fill="#ffffff"/></g><g id="ProcessOnG1055" transform="matrix(1.0,0.0,0.0,1.0,422.90940046310425,458.40000915527344)" opacity="1.0"><path id="ProcessOnPath1056" d="M0.0 0.0L25.0 0.0L25.0 25.0L0.0 25.0Z" stroke="#323232" stroke-width="2.0" stroke-dasharray="none" opacity="1.0" fill="#ffffff"/></g><g id="ProcessOnG1057" transform="matrix(1.0,0.0,0.0,1.0,447.90940046310425,458.40000915527344)" opacity="1.0"><path id="ProcessOnPath1058" d="M0.0 0.0L25.0 0.0L25.0 25.0L0.0 25.0Z" stroke="#323232" stroke-width="2.0" stroke-dasharray="none" opacity="1.0" fill="#ffffff"/></g><g id="ProcessOnG1059" transform="matrix(1.0,0.0,0.0,1.0,472.90940046310425,458.40000915527344)" opacity="1.0"><path id="ProcessOnPath1060" d="M0.0 0.0L25.0 0.0L25.0 25.0L0.0 25.0Z" stroke="#323232" stroke-width="2.0" stroke-dasharray="none" opacity="1.0" fill="#ffffff"/></g><g id="ProcessOnG1061" transform="matrix(1.0,0.0,0.0,1.0,497.90940046310425,458.40000915527344)" opacity="1.0"><path id="ProcessOnPath1062" d="M0.0 0.0L25.0 0.0L25.0 25.0L0.0 25.0Z" stroke="#323232" stroke-width="2.0" stroke-dasharray="none" opacity="1.0" fill="#ffffff"/></g><g id="ProcessOnG1063" transform="matrix(6.123233995736766E-17,1.0,-1.0,6.123233995736766E-17,521.7999992370605,410.40000915527344)" opacity="1.0"><path id="ProcessOnPath1064" d="M44.0 0.0Q39.6 0.0 39.6 9.0L39.6 63.5Q39.6 72.5 22.0 72.5Q39.6 72.5 39.6 81.5L39.6 136.0Q39.6 145.0 44.0 145.0" stroke="#323232" stroke-width="2.0" stroke-dasharray="none" opacity="1.0" fill="none"/><path id="ProcessOnPath1065" d="M0.0 0.0L44.0 0.0L44.0 145.0L0.0 145.0Z" stroke="none" stroke-width="0.0" stroke-dasharray="none" opacity="1.0" fill="none"/></g><g id="ProcessOnG1066" transform="matrix(1.0,0.0,0.0,1.0,375.69059801101685,480.90000915527344)" opacity="1.0"><path id="ProcessOnPath1067" d="M0.0 0.0L25.0 0.0L25.0 25.0L0.0 25.0Z" stroke="#323232" stroke-width="2.0" stroke-dasharray="none" opacity="1.0" fill="#ffffff"/></g><g id="ProcessOnG1068" transform="matrix(1.0,0.0,0.0,1.0,400.69059801101685,480.90000915527344)" opacity="1.0"><path id="ProcessOnPath1069" d="M0.0 0.0L25.0 0.0L25.0 25.0L0.0 25.0Z" stroke="#323232" stroke-width="2.0" stroke-dasharray="none" opacity="1.0" fill="#ffffff"/></g><g id="ProcessOnG1070" transform="matrix(1.0,0.0,0.0,1.0,422.90940046310425,480.90000915527344)" opacity="1.0"><path id="ProcessOnPath1071" d="M0.0 0.0L25.0 0.0L25.0 25.0L0.0 25.0Z" stroke="#323232" stroke-width="2.0" stroke-dasharray="none" opacity="1.0" fill="#ffffff"/></g><g id="ProcessOnG1072" transform="matrix(1.0,0.0,0.0,1.0,447.90940046310425,480.90000915527344)" opacity="1.0"><path id="ProcessOnPath1073" d="M0.0 0.0L25.0 0.0L25.0 25.0L0.0 25.0Z" stroke="#323232" stroke-width="2.0" stroke-dasharray="none" opacity="1.0" fill="#ffffff"/></g><g id="ProcessOnG1074" transform="matrix(1.0,0.0,0.0,1.0,472.90940046310425,480.90000915527344)" opacity="1.0"><path id="ProcessOnPath1075" d="M0.0 0.0L25.0 0.0L25.0 25.0L0.0 25.0Z" stroke="#323232" stroke-width="2.0" stroke-dasharray="none" opacity="1.0" fill="#ffffff"/></g><g id="ProcessOnG1076" transform="matrix(1.0,0.0,0.0,1.0,497.90940046310425,480.90000915527344)" opacity="1.0"><path id="ProcessOnPath1077" d="M0.0 0.0L25.0 0.0L25.0 25.0L0.0 25.0Z" stroke="#323232" stroke-width="2.0" stroke-dasharray="none" opacity="1.0" fill="#ffffff"/></g><g id="ProcessOnG1078" transform="matrix(1.0,0.0,0.0,1.0,375.69059801101685,504.90000915527344)" opacity="1.0"><path id="ProcessOnPath1079" d="M0.0 0.0L25.0 0.0L25.0 25.0L0.0 25.0Z" stroke="#323232" stroke-width="2.0" stroke-dasharray="none" opacity="1.0" fill="#ffffff"/></g><g id="ProcessOnG1080" transform="matrix(1.0,0.0,0.0,1.0,400.69059801101685,504.90000915527344)" opacity="1.0"><path id="ProcessOnPath1081" d="M0.0 0.0L25.0 0.0L25.0 25.0L0.0 25.0Z" stroke="#323232" stroke-width="2.0" stroke-dasharray="none" opacity="1.0" fill="#ffffff"/></g><g id="ProcessOnG1082" transform="matrix(1.0,0.0,0.0,1.0,422.90940046310425,504.90000915527344)" opacity="1.0"><path id="ProcessOnPath1083" d="M0.0 0.0L25.0 0.0L25.0 25.0L0.0 25.0Z" stroke="#323232" stroke-width="2.0" stroke-dasharray="none" opacity="1.0" fill="#ffffff"/></g><g id="ProcessOnG1084" transform="matrix(1.0,0.0,0.0,1.0,447.90940046310425,504.90000915527344)" opacity="1.0"><path id="ProcessOnPath1085" d="M0.0 0.0L25.0 0.0L25.0 25.0L0.0 25.0Z" stroke="#323232" stroke-width="2.0" stroke-dasharray="none" opacity="1.0" fill="#ffffff"/></g><g id="ProcessOnG1086" transform="matrix(1.0,0.0,0.0,1.0,472.90940046310425,504.90000915527344)" opacity="1.0"><path id="ProcessOnPath1087" d="M0.0 0.0L25.0 0.0L25.0 25.0L0.0 25.0Z" stroke="#323232" stroke-width="2.0" stroke-dasharray="none" opacity="1.0" fill="#ffffff"/></g><g id="ProcessOnG1088" transform="matrix(1.0,0.0,0.0,1.0,497.90940046310425,504.90000915527344)" opacity="1.0"><path id="ProcessOnPath1089" d="M0.0 0.0L25.0 0.0L25.0 25.0L0.0 25.0Z" stroke="#323232" stroke-width="2.0" stroke-dasharray="none" opacity="1.0" fill="#ffffff"/></g><g id="ProcessOnG1090" transform="matrix(1.0,0.0,0.0,1.0,375.69059801101685,525.9000091552734)" opacity="1.0"><path id="ProcessOnPath1091" d="M0.0 0.0L25.0 0.0L25.0 25.0L0.0 25.0Z" stroke="#323232" stroke-width="2.0" stroke-dasharray="none" opacity="1.0" fill="#ffffff"/></g><g id="ProcessOnG1092" transform="matrix(1.0,0.0,0.0,1.0,400.69059801101685,525.9000091552734)" opacity="1.0"><path id="ProcessOnPath1093" d="M0.0 0.0L25.0 0.0L25.0 25.0L0.0 25.0Z" stroke="#323232" stroke-width="2.0" stroke-dasharray="none" opacity="1.0" fill="#ffffff"/></g><g id="ProcessOnG1094" transform="matrix(1.0,0.0,0.0,1.0,422.90940046310425,525.9000091552734)" opacity="1.0"><path id="ProcessOnPath1095" d="M0.0 0.0L25.0 0.0L25.0 25.0L0.0 25.0Z" stroke="#323232" stroke-width="2.0" stroke-dasharray="none" opacity="1.0" fill="#ffffff"/></g><g id="ProcessOnG1096" transform="matrix(1.0,0.0,0.0,1.0,447.90940046310425,525.9000091552734)" opacity="1.0"><path id="ProcessOnPath1097" d="M0.0 0.0L25.0 0.0L25.0 25.0L0.0 25.0Z" stroke="#323232" stroke-width="2.0" stroke-dasharray="none" opacity="1.0" fill="#ffffff"/></g><g id="ProcessOnG1098" transform="matrix(1.0,0.0,0.0,1.0,472.90940046310425,525.9000091552734)" opacity="1.0"><path id="ProcessOnPath1099" d="M0.0 0.0L25.0 0.0L25.0 25.0L0.0 25.0Z" stroke="#323232" stroke-width="2.0" stroke-dasharray="none" opacity="1.0" fill="#ffffff"/></g><g id="ProcessOnG1100" transform="matrix(1.0,0.0,0.0,1.0,497.90940046310425,525.9000091552734)" opacity="1.0"><path id="ProcessOnPath1101" d="M0.0 0.0L25.0 0.0L25.0 25.0L0.0 25.0Z" stroke="#323232" stroke-width="2.0" stroke-dasharray="none" opacity="1.0" fill="#ffffff"/></g><g id="ProcessOnG1102" transform="matrix(1.0,0.0,0.0,1.0,310.65686893463135,842.8999938964844)" opacity="1.0"><path id="ProcessOnPath1103" d="M0.0 0.0L57.0 0.0L57.0 23.0L0.0 23.0Z" stroke="none" stroke-width="0.0" stroke-dasharray="none" opacity="1.0" fill="none"/><g id="ProcessOnG1104" transform="matrix(1.0,0.0,0.0,1.0,0.0,3.375)"><text id="ProcessOnText1105" fill="#000000" font-size="13" x="27.5" y="13.325" font-family="微软雅黑" font-weight="normal" font-style="normal" text-decoration="none" family="微软雅黑" text-anchor="middle" size="13">This</text></g></g><g id="ProcessOnG1106" transform="matrix(1.0,0.0,0.0,1.0,388.51880168914795,842.8999938964844)" opacity="1.0"><path id="ProcessOnPath1107" d="M0.0 0.0L57.0 0.0L57.0 23.0L0.0 23.0Z" stroke="none" stroke-width="0.0" stroke-dasharray="none" opacity="1.0" fill="none"/><g id="ProcessOnG1108" transform="matrix(1.0,0.0,0.0,1.0,0.0,3.375)"><text id="ProcessOnText1109" fill="#000000" font-size="13" x="27.5" y="13.325" font-family="微软雅黑" font-weight="normal" font-style="normal" text-decoration="none" family="微软雅黑" text-anchor="middle" size="13">movie</text></g></g><g id="ProcessOnG1110" transform="matrix(1.0,0.0,0.0,1.0,463.59688091278076,842.8999938964844)" opacity="1.0"><path id="ProcessOnPath1111" d="M0.0 0.0L57.0 0.0L57.0 23.0L0.0 23.0Z" stroke="none" stroke-width="0.0" stroke-dasharray="none" opacity="1.0" fill="none"/><g id="ProcessOnG1112" transform="matrix(1.0,0.0,0.0,1.0,0.0,3.375)"><text id="ProcessOnText1113" fill="#000000" font-size="13" x="27.5" y="13.325" font-family="微软雅黑" font-weight="normal" font-style="normal" text-decoration="none" family="微软雅黑" text-anchor="middle" size="13">is</text></g></g><g id="ProcessOnG1114" transform="matrix(1.0,0.0,0.0,1.0,531.9431295394897,842.8999938964844)" opacity="1.0"><path id="ProcessOnPath1115" d="M0.0 0.0L57.0 0.0L57.0 23.0L0.0 23.0Z" stroke="none" stroke-width="0.0" stroke-dasharray="none" opacity="1.0" fill="none"/><g id="ProcessOnG1116" transform="matrix(1.0,0.0,0.0,1.0,0.0,3.375)"><text id="ProcessOnText1117" fill="#000000" font-size="13" x="27.5" y="13.325" font-family="微软雅黑" font-weight="normal" font-style="normal" text-decoration="none" family="微软雅黑" text-anchor="middle" size="13">amazing</text></g></g><g id="ProcessOnG1118"><path id="ProcessOnPath1119" d="M449.29999923706055 614.4000091552734L449.29999923706055 579.6360771327733" stroke="#323232" stroke-width="2.0" stroke-dasharray="none" fill="none" marker-end="url(#ProcessOnMarker1120)"/></g><g id="ProcessOnG1122" transform="matrix(1.0,0.0,0.0,1.0,320.15686893463135,455.40000915527344)" opacity="1.0"><path id="ProcessOnPath1123" d="M47.5 0.0Q42.75 0.0 42.75 9.0L42.75 38.75Q42.75 47.75 25.5 47.75Q42.75 47.75 42.75 56.75L42.75 86.5Q42.75 95.5 47.5 95.5" stroke="#323232" stroke-width="2.0" stroke-dasharray="none" opacity="1.0" fill="none"/><path id="ProcessOnPath1124" d="M0.0 0.0L47.5 0.0L47.5 95.5L0.0 95.5Z" stroke="none" stroke-width="0.0" stroke-dasharray="none" opacity="1.0" fill="none"/><g id="ProcessOnG1125" transform="matrix(1.0,0.0,0.0,1.0,0.0,39.625)"><text id="ProcessOnText1126" fill="#000000" font-size="13" x="18.5" y="13.325" font-family="微软雅黑" font-weight="normal" font-style="normal" text-decoration="none" family="微软雅黑" text-anchor="end" size="13">4</text></g></g><g id="ProcessOnG1127" transform="matrix(1.0,0.0,0.0,1.0,422.90940046310425,408.90000915527344)" opacity="1.0"><path id="ProcessOnPath1128" d="M0.0 0.0L57.0 0.0L57.0 23.0L0.0 23.0Z" stroke="none" stroke-width="0.0" stroke-dasharray="none" opacity="1.0" fill="none"/><g id="ProcessOnG1129" transform="matrix(1.0,0.0,0.0,1.0,0.0,3.375)"><text id="ProcessOnText1130" fill="#000000" font-size="13" x="27.5" y="13.325" font-family="微软雅黑" font-weight="normal" font-style="normal" text-decoration="none" family="微软雅黑" text-anchor="middle" size="13">2u</text></g></g><g id="ProcessOnG1131" transform="matrix(1.0,0.0,0.0,1.0,310.65686893463135,429.40000915527344)" opacity="1.0"><path id="ProcessOnPath1132" d="M0.0 0.0L43.0 0.0L43.0 36.0L0.0 36.0Z" stroke="none" stroke-width="0.0" stroke-dasharray="none" opacity="1.0" fill="none"/><g id="ProcessOnG1133" transform="matrix(1.0,0.0,0.0,1.0,0.0,0.5)"><text id="ProcessOnText1134" fill="#000000" font-size="28" x="20.5" y="28.700000000000003" font-family="Arial" font-weight="bold" font-style="normal" text-decoration="none" family="Arial" text-anchor="middle" size="28">H</text></g></g></g></g></svg>