<?xml version="1.0" encoding="UTF-8"?>
<!DOCTYPE svg PUBLIC "-//W3C//DTD SVG 1.1//EN" "http://www.w3.org/Graphics/SVG/1.1/DTD/svg11.dtd">
<!-- Creator: CorelDRAW 2018 (64-Bit) -->
<svg xmlns="http://www.w3.org/2000/svg" xml:space="preserve" width="99mm" height="26mm" version="1.1" style="shape-rendering:geometricPrecision; text-rendering:geometricPrecision; image-rendering:optimizeQuality; fill-rule:evenodd; clip-rule:evenodd"
viewBox="1000 4900 10700 2800"
 xmlns:xlink="http://www.w3.org/1999/xlink">
 <defs>
  <style type="text/css">
   <![CDATA[
    .fil0 {fill:none}
    .fil1 {fill:#2C94F6}
    .fil2 {fill:#282830;fill-rule:nonzero}
    .fil3 {fill:#2C94F6;fill-rule:nonzero}
   ]]>
  </style>
 </defs>
 <g id="Layer_x0020_1">
  <metadata id="CorelCorpID_0Corel-Layer"/>
  <polygon class="fil0" points="-0,0 12700,0 12700,12700 -0,12700 "/>
 </g>
 <g id="Layer_x0020_2">
  <metadata id="CorelCorpID_1Corel-Layer"/>
  <path class="fil1" d="M2317.89 5302.12c215.1,0 415.04,64.84 581.39,176 44.27,29.6 70.35,73.08 75.56,126.07 5.21,53 -11.87,100.74 -49.52,138.4l-17.38 17.37c-58.03,58 -146.33,67.28 -215.15,22.61 -83.25,-54.06 -212.05,-113.69 -374.9,-113.69 -376.18,0 -681.12,304.94 -681.12,681.11l0 796.29c-224.49,-192.2 -366.77,-477.61 -366.77,-796.29 0,-578.73 469.15,-1047.87 1047.89,-1047.87zm790.11 497.39c101.82,0 184.35,82.53 184.35,184.35 0,101.82 -82.53,184.35 -184.35,184.35 -101.82,0 -184.35,-82.53 -184.35,-184.35 0,-101.82 82.53,-184.35 184.35,-184.35zm-111.46 492.54l-543.96 0 462.99 384.86c-115.7,211.09 -339.96,354.22 -597.68,354.22 -116.06,0 -225.33,-29.09 -320.97,-80.28l-360.11 195.48c183.18,156.8 421.05,251.56 681.08,251.56 578.75,0 1047.9,-469.15 1047.9,-1047.9 0,-19.45 -0.56,-38.74 -1.6,-57.94l-163.06 0 -204.59 0z"/>
 </g>
 <g id="Layer_x0020_3">
  <metadata id="CorelCorpID_2Corel-Layer"/>
  <path class="fil2" d="M4175.55 6767.93c-105.88,-103.83 -158.83,-235.43 -158.83,-394.78 0,-159.38 53.2,-290.96 159.6,-394.81 106.43,-103.83 236.74,-155.76 390.95,-155.76 117.21,0 221.31,29.82 312.3,89.45 90.99,59.63 156.02,143.43 195.09,251.39l-260.63 0c-48.33,-94.61 -130.59,-141.89 -246.76,-141.89 -97.67,0 -177.09,32.12 -238.27,96.38 -61.17,64.25 -91.76,149.58 -91.76,256.01 0,106.4 30.59,191.75 91.76,256 61.18,64.26 136.22,96.39 225.16,96.39 88.94,0 158.86,-21.87 209.74,-65.55 50.9,-43.7 82.51,-102.56 94.85,-176.59l-357.79 0 0 -165.01 590.65 0 0 165.01c-18.5,117.21 -76.08,219.78 -172.71,307.68 -96.66,87.9 -218.22,131.85 -364.74,131.85 -146.51,0 -272.7,-51.92 -378.61,-155.77zm1087.26 146.52l0 -1141.22 217.42 0 0 1141.22 -217.42 0zm1037.88 -854.37l217.45 0 0 854.37 -217.45 0 0 -129.55c-54.48,93.56 -143.42,140.33 -266.79,140.33 -96.65,0 -175.82,-32.13 -237.51,-96.38 -61.68,-64.26 -92.52,-153.44 -92.52,-267.56l0 -501.21 215.89 0 0 470.37c0,66.83 16.97,118.22 50.9,154.21 33.93,35.98 80.18,53.99 138.8,53.99 58.59,0 105.11,-18.01 139.57,-53.99 34.43,-35.99 51.66,-87.38 51.66,-154.21l0 -470.37zm828.16 683.19c60.64,0 112.83,-22.36 156.53,-67.1 43.68,-44.71 65.54,-107.93 65.54,-189.67 0,-81.74 -21.59,-144.71 -64.77,-188.93 -43.19,-44.2 -95.37,-66.31 -156.54,-66.31 -61.19,0 -112.83,22.11 -155,66.31 -42.14,44.22 -63.22,107.44 -63.22,189.7 0,82.23 21.08,145.47 63.22,189.67 42.17,44.22 93.57,66.33 154.24,66.33zm-313.07 61.69c-83.28,-81.23 -124.93,-187.65 -124.93,-319.23 0,-131.6 42.15,-237.51 126.46,-317.69 84.32,-80.21 188.91,-120.3 313.84,-120.3 124.92,0 229.54,40.09 313.83,120.3 84.31,80.18 126.46,186.09 126.46,317.69 0,131.58 -42.42,238 -127.23,319.23 -84.81,81.22 -189.94,121.83 -315.36,121.83 -125.45,0 -229.8,-40.61 -313.07,-121.83zm1145.82 -744.88l0 128c54.51,-93.57 142.93,-140.34 265.26,-140.34 97.67,0 177.36,32.13 239.04,96.39 61.69,64.25 92.53,153.44 92.53,267.58l0 502.74 -215.9 0 0 -471.9c0,-66.83 -16.96,-117.98 -50.9,-153.47 -33.93,-35.46 -80.18,-53.2 -138.8,-53.2 -58.59,0 -105.11,17.74 -139.56,53.2 -34.43,35.49 -51.67,86.64 -51.67,153.47l0 471.9 -217.43 0 0 -854.37 217.43 0z"/>
 </g>
 <g id="Layer_x0020_4">
  <metadata id="CorelCorpID_3Corel-Layer"/>
  <path class="fil3" d="M9486.83 5834.91l217.45 0 0 1079.53 -217.45 0 -487.33 -746.41 0 746.41 -217.43 0 0 -1079.53 217.43 0 487.33 746.43 0 -746.43zm448.8 3.09l217.43 0 0 911.42 345.46 0 0 165.02 -562.89 0 0 -1076.44zm1412.64 536.67c-27.75,33.94 -68.12,60.92 -121.07,80.98 -52.95,20.03 -114.88,30.07 -185.82,30.07l-178.91 0 0 428.72 -217.43 0 0 -1076.44 396.34 0c124.39,0 220.27,31.09 287.62,93.29 67.32,62.2 101.01,135.46 101.01,219.77 0,84.29 -27.26,158.84 -81.74,223.61zm-485.8 -55.52l178.91 0c54.49,0 96.12,-14.13 124.9,-42.39 28.79,-28.3 43.19,-66.58 43.19,-114.91 0,-48.33 -14.4,-86.62 -43.19,-114.89 -28.78,-28.26 -70.41,-42.41 -124.9,-42.41l-178.91 0 0 314.6z"/>
 </g>
</svg>
